<svg width="1920" height="570" viewBox="0 0 1920 570" fill="none" xmlns="http://www.w3.org/2000/svg">
<path d="M-266.14 51.5L-219.66 342H-265.725L-273.61 289.295H-329.635L-337.52 342H-379.435L-332.955 51.5H-266.14ZM-301.83 102.96L-323.825 249.87H-279.835L-301.83 102.96ZM-129.511 51.5C-82.201 51.5 -61.866 73.495 -61.866 118.315V128.69C-61.866 158.57 -70.996 177.66 -91.331 187.205C-66.846 196.75 -57.301 218.745 -57.301 249.455V273.11C-57.301 317.93 -80.956 342 -126.606 342H-198.401V51.5H-129.511ZM-132.416 211.275H-152.751V300.5H-126.606C-111.251 300.5 -102.951 293.445 -102.951 271.865V246.55C-102.951 219.575 -111.666 211.275 -132.416 211.275ZM-130.756 93H-152.751V169.775H-134.906C-117.891 169.775 -107.516 162.305 -107.516 139.065V122.88C-107.516 102.13 -114.571 93 -130.756 93ZM12.1078 118.315V275.185C12.1078 295.935 21.2378 303.82 35.7628 303.82C50.2878 303.82 59.4178 295.935 59.4178 275.185V118.315C59.4178 97.565 50.2878 89.68 35.7628 89.68C21.2378 89.68 12.1078 97.565 12.1078 118.315ZM-33.5422 272.28V121.22C-33.5422 74.74 -9.05723 48.18 35.7628 48.18C80.5828 48.18 105.068 74.74 105.068 121.22V272.28C105.068 318.76 80.5828 345.32 35.7628 345.32C-9.05723 345.32 -33.5422 318.76 -33.5422 272.28ZM132.659 51.5H178.309V275.6C178.309 296.35 187.439 303.82 201.964 303.82C216.489 303.82 225.619 296.35 225.619 275.6V51.5H268.779V272.695C268.779 319.175 245.539 345.735 200.719 345.735C155.899 345.735 132.659 319.175 132.659 272.695V51.5ZM286.805 93V51.5H427.905V93H380.18V342H334.53V93H286.805ZM510.374 51.5H556.024V275.6C556.024 296.35 565.154 303.82 579.679 303.82C594.204 303.82 603.334 296.35 603.334 275.6V51.5H646.494V272.695C646.494 319.175 623.254 345.735 578.434 345.735C533.614 345.735 510.374 319.175 510.374 272.695V51.5ZM671.99 121.22C671.99 74.74 694.815 48.18 739.22 48.18C783.625 48.18 806.45 74.74 806.45 121.22V130.35H763.29V118.315C763.29 97.565 754.99 89.68 740.465 89.68C725.94 89.68 717.64 97.565 717.64 118.315C717.64 178.075 806.865 189.28 806.865 272.28C806.865 318.76 783.625 345.32 738.805 345.32C693.985 345.32 670.745 318.76 670.745 272.28V254.435H713.905V275.185C713.905 295.935 723.035 303.405 737.56 303.405C752.085 303.405 761.215 295.935 761.215 275.185C761.215 215.425 671.99 204.22 671.99 121.22Z" fill="#8D8D8D" fill-opacity="0.1"/>
<path d="M1516.88 29L1580.72 428H1517.45L1506.62 355.61H1429.67L1418.84 428H1361.27L1425.11 29H1516.88ZM1467.86 99.68L1437.65 301.46H1498.07L1467.86 99.68ZM1704.54 29C1769.52 29 1797.45 59.21 1797.45 120.77V135.02C1797.45 176.06 1784.91 202.28 1756.98 215.39C1790.61 228.5 1803.72 258.71 1803.72 300.89V333.38C1803.72 394.94 1771.23 428 1708.53 428H1609.92V29H1704.54ZM1700.55 248.45H1672.62V371H1708.53C1729.62 371 1741.02 361.31 1741.02 331.67V296.9C1741.02 259.85 1729.05 248.45 1700.55 248.45ZM1702.83 86H1672.62V191.45H1697.13C1720.5 191.45 1734.75 181.19 1734.75 149.27V127.04C1734.75 98.54 1725.06 86 1702.83 86ZM1899.05 120.77V336.23C1899.05 364.73 1911.59 375.56 1931.54 375.56C1951.49 375.56 1964.03 364.73 1964.03 336.23V120.77C1964.03 92.27 1951.49 81.44 1931.54 81.44C1911.59 81.44 1899.05 92.27 1899.05 120.77ZM1836.35 332.24V124.76C1836.35 60.92 1869.98 24.44 1931.54 24.44C1993.1 24.44 2026.73 60.92 2026.73 124.76V332.24C2026.73 396.08 1993.1 432.56 1931.54 432.56C1869.98 432.56 1836.35 396.08 1836.35 332.24ZM2064.63 29H2127.33V336.8C2127.33 365.3 2139.87 375.56 2159.82 375.56C2179.77 375.56 2192.31 365.3 2192.31 336.8V29H2251.59V332.81C2251.59 396.65 2219.67 433.13 2158.11 433.13C2096.55 433.13 2064.63 396.65 2064.63 332.81V29ZM2276.35 86V29H2470.15V86H2404.6V428H2341.9V86H2276.35ZM2583.42 29H2646.12V336.8C2646.12 365.3 2658.66 375.56 2678.61 375.56C2698.56 375.56 2711.1 365.3 2711.1 336.8V29H2770.38V332.81C2770.38 396.65 2738.46 433.13 2676.9 433.13C2615.34 433.13 2583.42 396.65 2583.42 332.81V29ZM2805.4 124.76C2805.4 60.92 2836.75 24.44 2897.74 24.44C2958.73 24.44 2990.08 60.92 2990.08 124.76V137.3H2930.8V120.77C2930.8 92.27 2919.4 81.44 2899.45 81.44C2879.5 81.44 2868.1 92.27 2868.1 120.77C2868.1 202.85 2990.65 218.24 2990.65 332.24C2990.65 396.08 2958.73 432.56 2897.17 432.56C2835.61 432.56 2803.69 396.08 2803.69 332.24V307.73H2862.97V336.23C2862.97 364.73 2875.51 374.99 2895.46 374.99C2915.41 374.99 2927.95 364.73 2927.95 336.23C2927.95 254.15 2805.4 238.76 2805.4 124.76Z" fill="#8D8D8D" fill-opacity="0.1"/>
</svg>
