<svg width="797" height="456" viewBox="0 0 797 456" fill="none" xmlns="http://www.w3.org/2000/svg">
<path d="M16.288 131L39.068 22.46H47.51L70.424 131H63.054L57.426 100.984H29.286L23.524 131H16.288ZM30.358 95.624H56.488L43.356 31.304L30.358 95.624ZM118.426 132.34C112.709 132.34 107.974 131.179 104.222 128.856C100.56 126.533 97.7457 123.273 95.7804 119.074C93.9044 114.875 92.743 109.917 92.2964 104.2L98.5944 102.19C99.2197 106.925 100.158 111.123 101.408 114.786C102.748 118.449 104.758 121.307 107.438 123.362C110.118 125.327 113.826 126.31 118.56 126.31C123.92 126.31 128.119 124.97 131.156 122.29C134.283 119.61 135.846 115.143 135.846 108.89C135.846 104.155 134.596 99.912 132.094 96.16C129.682 92.3187 126.243 88.2093 121.776 83.832L101.944 64.134C98.639 60.7393 96.227 57.3447 94.7084 53.95C93.1897 50.5553 92.4304 47.0713 92.4304 43.498C92.4304 36.3513 94.619 30.8573 98.9964 27.016C103.463 23.1747 109.225 21.254 116.282 21.254C119.945 21.254 123.25 21.7453 126.198 22.728C129.146 23.6213 131.692 25.14 133.836 27.284C136.07 29.3387 137.812 32.108 139.062 35.592C140.313 39.076 141.117 43.364 141.474 48.456L135.31 49.93C134.953 44.838 134.104 40.5947 132.764 37.2C131.424 33.8053 129.459 31.304 126.868 29.696C124.278 27.9987 120.794 27.15 116.416 27.15C111.503 27.15 107.394 28.4007 104.088 30.902C100.783 33.4033 99.1304 37.4233 99.1304 42.962C99.1304 45.7313 99.6664 48.4113 100.738 51.002C101.9 53.5927 103.999 56.4067 107.036 59.444L126.6 78.74C130.978 83.028 134.73 87.6287 137.856 92.542C141.072 97.366 142.68 102.681 142.68 108.488C142.68 113.937 141.653 118.449 139.598 122.022C137.544 125.506 134.685 128.097 131.022 129.794C127.36 131.491 123.161 132.34 118.426 132.34ZM144.844 131L167.624 22.46H176.066L198.98 131H191.61L185.982 100.984H157.842L152.08 131H144.844ZM158.914 95.624H185.044L171.912 31.304L158.914 95.624ZM206.588 131V22.46H243.974V28.222H213.824V71.906H239.82V77.534H213.824V131H206.588ZM251.051 131V22.46H288.571V28.356H258.421V71.906H283.211V77.534H258.421V125.238H288.973V131H251.051ZM315.643 131V22.46H323.013V83.43L354.503 22.46H361.739L338.825 68.422L367.233 131H359.997L334.403 74.72L323.013 95.49V131H315.643ZM370.846 131V22.46H378.082V131H370.846ZM391.623 131V22.46H397.385L434.235 114.116V22.46H440.667V131H434.905L398.055 39.21V131H391.623ZM453.886 131V22.46H477.604C484.84 22.46 490.468 23.8447 494.488 26.614C498.508 29.3833 501.322 33.1353 502.93 37.87C504.538 42.6047 505.342 47.8753 505.342 53.682V98.706C505.342 104.87 504.538 110.409 502.93 115.322C501.322 120.146 498.553 123.987 494.622 126.846C490.781 129.615 485.331 131 478.274 131H453.886ZM461.122 125.238H477.872C483.768 125.238 488.145 123.987 491.004 121.486C493.863 118.985 495.739 115.679 496.632 111.57C497.525 107.371 497.972 102.815 497.972 97.902V54.218C497.972 48.9473 497.436 44.3913 496.364 40.55C495.292 36.6193 493.282 33.6267 490.334 31.572C487.386 29.428 483.143 28.356 477.604 28.356H461.122V125.238Z" fill="white"/>
<g style="mix-blend-mode:screen">
<path d="M13.68 333L17.04 138.6H63.12L84.48 251.64L107.52 138.6H151.92L155.28 333H124.8L121.2 203.64L98.64 333H71.52L47.52 202.68L44.64 333H13.68ZM225.144 335.88C210.264 335.88 198.584 333.48 190.104 328.68C181.784 323.72 175.944 316.6 172.584 307.32C169.224 297.88 167.544 286.36 167.544 272.76V138.6H210.024V279.24C210.024 283.24 210.344 287.24 210.984 291.24C211.624 295.24 212.984 298.52 215.064 301.08C217.304 303.64 220.664 304.92 225.144 304.92C229.784 304.92 233.144 303.64 235.224 301.08C237.304 298.52 238.584 295.24 239.064 291.24C239.704 287.24 240.024 283.24 240.024 279.24V138.6H282.744V272.76C282.744 286.36 280.984 297.88 277.464 307.32C274.104 316.6 268.264 323.72 259.944 328.68C251.624 333.48 240.024 335.88 225.144 335.88ZM347.278 335.88C335.118 335.88 324.958 333.72 316.798 329.4C308.638 325.08 302.478 318.44 298.318 309.48C294.158 300.36 291.838 288.6 291.358 274.2L328.078 268.68C328.238 277 328.958 283.72 330.238 288.84C331.678 293.96 333.598 297.64 335.998 299.88C338.558 302.12 341.598 303.24 345.118 303.24C349.598 303.24 352.478 301.72 353.758 298.68C355.198 295.64 355.918 292.44 355.918 289.08C355.918 281.08 353.998 274.36 350.158 268.92C346.318 263.32 341.118 257.72 334.558 252.12L317.758 237.48C310.398 231.24 304.158 224.2 299.038 216.36C294.078 208.36 291.598 198.52 291.598 186.84C291.598 170.36 296.478 157.8 306.238 149.16C315.998 140.36 329.278 135.96 346.078 135.96C356.478 135.96 364.798 137.72 371.038 141.24C377.438 144.76 382.238 149.4 385.438 155.16C388.798 160.76 391.038 166.76 392.158 173.16C393.438 179.4 394.158 185.4 394.318 191.16L357.358 195.72C357.198 189.96 356.798 185 356.158 180.84C355.678 176.52 354.558 173.24 352.798 171C351.038 168.6 348.318 167.4 344.638 167.4C340.638 167.4 337.678 169.08 335.758 172.44C333.998 175.8 333.118 179.16 333.118 182.52C333.118 189.72 334.798 195.64 338.158 200.28C341.678 204.76 346.238 209.48 351.838 214.44L367.918 228.6C376.398 235.8 383.518 243.96 389.278 253.08C395.198 262.2 398.158 273.48 398.158 286.92C398.158 296.04 396.078 304.36 391.918 311.88C387.758 319.24 381.838 325.08 374.158 329.4C366.638 333.72 357.678 335.88 347.278 335.88ZM404.799 333V138.6H447.759V333H404.799ZM518.027 335.88C503.307 335.88 491.627 333.24 482.987 327.96C474.507 322.52 468.507 315 464.987 305.4C461.467 295.64 459.707 284.2 459.707 271.08V201C459.707 187.56 461.467 176.04 464.987 166.44C468.507 156.68 474.507 149.16 482.987 143.88C491.627 138.6 503.307 135.96 518.027 135.96C532.427 135.96 543.627 138.36 551.627 143.16C559.787 147.8 565.547 154.36 568.907 162.84C572.267 171.32 573.947 181.08 573.947 192.12V208.92H531.947V189.48C531.947 185.64 531.707 181.96 531.227 178.44C530.907 174.92 529.787 172.04 527.867 169.8C525.947 167.4 522.667 166.2 518.027 166.2C513.547 166.2 510.187 167.4 507.947 169.8C505.867 172.2 504.507 175.24 503.867 178.92C503.387 182.44 503.147 186.2 503.147 190.2V281.64C503.147 285.96 503.467 289.96 504.107 293.64C504.907 297.16 506.347 300.04 508.427 302.28C510.667 304.36 513.867 305.4 518.027 305.4C522.507 305.4 525.707 304.28 527.627 302.04C529.547 299.64 530.747 296.6 531.227 292.92C531.707 289.24 531.947 285.48 531.947 281.64V261.24H573.947V278.04C573.947 289.08 572.267 299 568.907 307.8C565.707 316.44 560.027 323.32 551.867 328.44C543.867 333.4 532.587 335.88 518.027 335.88ZM630.427 333V138.6H673.387V333H630.427ZM739.575 335.88C727.415 335.88 717.255 333.72 709.095 329.4C700.935 325.08 694.775 318.44 690.615 309.48C686.455 300.36 684.135 288.6 683.655 274.2L720.375 268.68C720.535 277 721.255 283.72 722.535 288.84C723.975 293.96 725.895 297.64 728.295 299.88C730.855 302.12 733.895 303.24 737.415 303.24C741.895 303.24 744.775 301.72 746.055 298.68C747.495 295.64 748.215 292.44 748.215 289.08C748.215 281.08 746.295 274.36 742.455 268.92C738.615 263.32 733.415 257.72 726.855 252.12L710.055 237.48C702.695 231.24 696.455 224.2 691.335 216.36C686.375 208.36 683.895 198.52 683.895 186.84C683.895 170.36 688.775 157.8 698.535 149.16C708.295 140.36 721.575 135.96 738.375 135.96C748.775 135.96 757.095 137.72 763.335 141.24C769.735 144.76 774.535 149.4 777.735 155.16C781.095 160.76 783.335 166.76 784.455 173.16C785.735 179.4 786.455 185.4 786.615 191.16L749.655 195.72C749.495 189.96 749.095 185 748.455 180.84C747.975 176.52 746.855 173.24 745.095 171C743.335 168.6 740.615 167.4 736.935 167.4C732.935 167.4 729.975 169.08 728.055 172.44C726.295 175.8 725.415 179.16 725.415 182.52C725.415 189.72 727.095 195.64 730.455 200.28C733.975 204.76 738.535 209.48 744.135 214.44L760.215 228.6C768.695 235.8 775.815 243.96 781.575 253.08C787.495 262.2 790.455 273.48 790.455 286.92C790.455 296.04 788.375 304.36 784.215 311.88C780.055 319.24 774.135 325.08 766.455 329.4C758.935 333.72 749.975 335.88 739.575 335.88Z" fill="#ED1F34"/>
</g>
<path d="M47.128 451.608C38.9987 451.608 32.5667 450.179 27.832 447.32C23.0973 444.461 19.7027 440.352 17.648 434.992C15.5933 429.632 14.566 423.245 14.566 415.83V375.496C14.566 367.992 15.5933 361.605 17.648 356.334C19.7027 351.063 23.0973 347.043 27.832 344.274C32.5667 341.415 38.9987 339.986 47.128 339.986C55.3467 339.986 61.8233 341.415 66.558 344.274C71.382 347.043 74.8213 351.063 76.876 356.334C78.9307 361.605 79.958 367.992 79.958 375.496V415.83C79.958 423.245 78.9307 429.632 76.876 434.992C74.8213 440.352 71.382 444.461 66.558 447.32C61.8233 450.179 55.3467 451.608 47.128 451.608ZM47.128 434.59C49.6293 434.59 51.4607 433.965 52.622 432.714C53.7833 431.463 54.5427 429.855 54.9 427.89C55.2573 425.925 55.436 423.915 55.436 421.86V369.6C55.436 367.456 55.2573 365.446 54.9 363.57C54.5427 361.605 53.7833 359.997 52.622 358.746C51.4607 357.495 49.6293 356.87 47.128 356.87C44.8053 356.87 43.0633 357.495 41.902 358.746C40.7407 359.997 39.9813 361.605 39.624 363.57C39.2667 365.446 39.088 367.456 39.088 369.6V421.86C39.088 423.915 39.222 425.925 39.49 427.89C39.8473 429.855 40.562 431.463 41.634 432.714C42.7953 433.965 44.6267 434.59 47.128 434.59ZM87.8556 450V341.46H134.756V357.674H111.842V385.01H131.808V401.76H111.842V450H87.8556ZM167.244 450V341.46H191.23V385.412H207.98V341.46H232.1V450H207.98V402.564H191.23V450H167.244ZM242.063 450V341.46H266.049V450H242.063ZM303.808 451.608C296.304 451.608 290.363 450.045 285.986 446.918C281.698 443.791 278.616 439.414 276.74 433.786C274.953 428.069 274.06 421.503 274.06 414.088V377.64C274.06 369.957 275.043 363.302 277.008 357.674C278.973 352.046 282.323 347.713 287.058 344.676C291.882 341.549 298.403 339.986 306.622 339.986C314.662 339.986 320.96 341.326 325.516 344.006C330.161 346.686 333.467 350.393 335.432 355.128C337.397 359.863 338.38 365.401 338.38 371.744V378.712H314.93V369.868C314.93 367.545 314.751 365.401 314.394 363.436C314.126 361.471 313.411 359.907 312.25 358.746C311.178 357.495 309.391 356.87 306.89 356.87C304.299 356.87 302.423 357.585 301.262 359.014C300.101 360.354 299.341 362.051 298.984 364.106C298.716 366.161 298.582 368.305 298.582 370.538V420.788C298.582 423.2 298.805 425.478 299.252 427.622C299.788 429.677 300.681 431.374 301.932 432.714C303.272 433.965 305.148 434.59 307.56 434.59C310.061 434.59 311.982 433.92 313.322 432.58C314.662 431.24 315.6 429.498 316.136 427.354C316.672 425.21 316.94 422.932 316.94 420.52V407.79H307.158V393.72H338.514V450H322.702L321.362 441.022C319.933 444.059 317.833 446.605 315.064 448.66C312.295 450.625 308.543 451.608 303.808 451.608ZM347.228 450V341.46H371.214V385.412H387.964V341.46H412.084V450H387.964V402.564H371.214V450H347.228Z" fill="white"/>
</svg>
